<?xml version="1.0" encoding="utf-8"?>
<!-- Generator: Adobe Illustrator 24.0.1, SVG Export Plug-In . SVG Version: 6.00 Build 0)  -->
<svg version="1.1" id="Layer_1" xmlns="http://www.w3.org/2000/svg" xmlns:xlink="http://www.w3.org/1999/xlink" x="0px" y="0px"
	 viewBox="0 0 400 100" style="enable-background:new 0 0 400 100;" xml:space="preserve">
<style type="text/css">
	.st0{fill:#FFFFFF;}
</style>
<path class="st0" d="M37,34.7v39.2h-9V34.7h-12V27H49v7.8H37z"/>
<path class="st0" d="M62.7,27v46.9h-8.9V27H62.7z"/>
<path class="st0" d="M112.9,73.9H104V46.1l-8.9,18.8h-6l-9-19v28h-8.9V27h8.9l12,25.9L104,27h8.9V73.9z"/>
<path class="st0" d="M129.8,46.3h17.8v7.8h-17.8v12h20.9v7.8h-29.8V27h29.8v7.8h-20.9V46.3z"/>
<g>
	<path class="st0" d="M266.4,34.1c-2.9,0-4.9,0.9-6.2,2.6c-1.3,1.7-1.9,4.7-1.9,8.7v10.1c0,3.9,0.6,6.6,1.9,8.3
		c1.3,1.7,3.3,2.5,6.2,2.5c2.7,0,4.7-0.9,6.1-2.6s2-4.5,2-8.3V45.5c0-4-0.7-6.9-2-8.7C271.2,35,269.2,34.1,266.4,34.1z"/>
	<path class="st0" d="M307.2,34.1c-2.9,0-4.9,0.9-6.2,2.6c-1.3,1.7-1.9,4.7-1.9,8.7v10.1c0,3.9,0.6,6.6,1.9,8.3
		c1.3,1.7,3.3,2.5,6.2,2.5c2.7,0,4.7-0.9,6.1-2.6s2-4.5,2-8.3V45.5c0-4-0.7-6.9-2-8.7C312,35,310,34.1,307.2,34.1z"/>
	<path class="st0" d="M189.1,34.7h-8.2v13.5h8.2c2.1,0,3.8-0.6,5-1.7c1.2-1.1,1.8-2.7,1.8-4.8c0-2.3-0.6-4-1.8-5.2
		S191.3,34.7,189.1,34.7z"/>
	<g>
		<path class="st0" d="M227.9,34.7h-8.4v12.7h8.4c2.1,0,3.7-0.6,4.9-1.7c1.2-1.1,1.7-2.7,1.7-4.8c0-1.9-0.6-3.4-1.8-4.6
			C231.5,35.3,229.9,34.7,227.9,34.7z"/>
		<path class="st0" d="M160.8,15.2v70.5h209c5.6-5.6,8.7-8.7,14.3-14.3V15.2H160.8z M200.8,52.2c-2.7,2.6-6.5,3.9-11.3,3.9h-8.6
			v17.8H172V27h17.5c4.8,0,8.5,1.3,11.3,3.9s4.1,6.2,4.1,10.8C204.9,46.1,203.5,49.6,200.8,52.2z M235,73.9l-8.9-19h-6.7v19h-8.9V27
			h17.8c4.6,0,8.2,1.3,10.9,3.8s4.1,5.9,4.1,10.2c0,3.1-0.7,5.7-2.1,7.8c-1.4,2.1-3.5,3.7-6.2,4.7l10.2,20.4H235z M283.4,55.7
			c0,6.6-1.6,11.4-4.7,14.3c-3.1,2.9-7.3,4.4-12.5,4.4c-11.2,0-16.8-6.2-16.8-18.7V45c0-12.5,5.7-18.7,17.1-18.7
			c5.2,0,9.3,1.5,12.4,4.4s4.6,7.7,4.6,14.3V55.7z M324.2,55.7c0,6.6-1.6,11.4-4.7,14.3c-3.1,2.9-7.3,4.4-12.5,4.4
			c-11.2,0-16.8-6.2-16.8-18.7V45c0-12.5,5.7-18.7,17.1-18.7c5.2,0,9.3,1.5,12.4,4.4s4.6,7.7,4.6,14.3V55.7z M360.7,34.7h-20.9v12
			h17.9v7.8h-17.9v19.4h-8.9V27h29.8V34.7z"/>
	</g>
</g>
</svg>
