<svg id="fc1f5aea-a643-4136-ad0f-c5867679d735" xmlns="http://www.w3.org/2000/svg" viewBox="0 0 1075.56 723"><defs><style>.cls-1{fill:#3f3d56;}.cls-2{fill:#ffb9b9;}.cls-3{fill:#2f2e41;}.cls-4{fill:#575a89;}.cls-5{fill:#fff;}.cls-6{fill:#f2f2f2;}</style></defs><rect class="cls-1" x="618.02" y="721" width="457.55" height="2"/><rect class="cls-1" x="583.02" y="692" width="457.55" height="2"/><rect class="cls-1" x="438.02" y="663" width="457.55" height="2"/><path class="cls-1" d="M329.25,575.58c-2.77,0-5.57-.05-8.33-.13l.07-2c3.95.12,8,.16,11.95.1l0,2C331.73,575.57,330.49,575.58,329.25,575.58Zm15.75-.47-.12-2c4-.24,8-.57,11.91-1l.21,2c-4,.42-8,.75-12,1Zm-36.1-.31c-4-.3-8-.7-12-1.19l.24-2c3.94.49,7.94.88,11.89,1.19Zm60-2.2-.3-2c3.93-.6,7.89-1.29,11.77-2.06l.39,2C376.89,571.3,372.9,572,368.94,572.6ZM285,571.87c-3.95-.67-7.92-1.44-11.83-2.28l.43-2c3.87.84,7.82,1.61,11.73,2.27Zm107.54-4-.48-1.94c3.86-1,7.74-2,11.54-3.14l.56,1.92C400.35,565.89,396.44,567,392.55,567.91Zm-131.07-1.15c-3.87-1-7.76-2.16-11.56-3.36l.6-1.91c3.78,1.2,7.64,2.32,11.47,3.34Zm154.16-5.7-.66-1.89c3.74-1.3,7.51-2.71,11.19-4.18l.75,1.86C423.2,558.33,419.41,559.75,415.64,561.06Zm-177.15-1.57c-3.75-1.38-7.53-2.86-11.23-4.42l.78-1.85c3.67,1.55,7.41,3,11.14,4.4ZM438,552.13l-.83-1.82c3.59-1.64,7.21-3.38,10.74-5.19l.91,1.78C445.23,548.72,441.59,550.48,438,552.13Zm21.39-10.94-1-1.74c3.45-2,6.89-4,10.23-6.15l1.07,1.69C466.31,537.12,462.84,539.21,459.36,541.19Zm20.33-12.86-1.15-1.64c3.25-2.27,6.49-4.64,9.63-7.06l1.22,1.59C486.22,523.65,483,526.05,479.69,528.33Zm-304.83-2.82c-3.23-2.34-6.45-4.8-9.58-7.3l1.24-1.56c3.11,2.48,6.31,4.92,9.52,7.24Zm323.9-11.84-1.29-1.53c3-2.55,6-5.22,9-7.91l1.36,1.47C504.85,508.41,501.81,511.09,498.76,513.67ZM156,510.48c-3-2.63-6-5.37-8.88-8.14l1.38-1.44c2.87,2.75,5.83,5.47,8.81,8.08Zm360.4-13.16-1.43-1.4c2.79-2.83,5.55-5.76,8.2-8.7l1.49,1.34c-2.67,3-5.45,5.91-8.26,8.76Zm-377.78-3.51c-2.75-2.9-5.48-5.9-8.09-8.91l1.51-1.31c2.59,3,5.3,6,8,8.84Zm393.9-14.38L531,478.16c2.52-3.07,5-6.23,7.38-9.41L540,470C537.6,473.15,535.1,476.34,532.56,479.43Zm-409.67-3.8c-2.48-3.13-4.92-6.36-7.25-9.6l1.62-1.17c2.32,3.22,4.74,6.43,7.19,9.53ZM547,460.14,545.33,459c2.23-3.28,4.42-6.66,6.49-10l1.71,1C551.43,453.42,549.23,456.83,547,460.14Zm-438.16-4c-2.17-3.34-4.31-6.78-6.33-10.22l1.72-1c2,3.42,4.13,6.83,6.29,10.14ZM559.6,439.6l-1.75-1c1.92-3.48,3.79-7,5.55-10.61l1.79.89C563.42,432.5,561.54,436.09,559.6,439.6ZM570.28,418l-1.83-.8c1.59-3.64,3.12-7.37,4.55-11.08l1.87.72C573.43,410.55,571.89,414.31,570.28,418Zm-483.9-4.31c-1.53-3.68-3-7.44-4.36-11.19l1.88-.68c1.35,3.71,2.8,7.45,4.32,11.1Zm492.55-18.22-1.9-.63c1.25-3.76,2.43-7.6,3.5-11.42l1.93.54C581.37,387.78,580.19,391.65,578.93,395.44ZM78.16,391.06c-1.19-3.81-2.31-7.7-3.32-11.57l1.93-.51c1,3.84,2.12,7.7,3.3,11.49Zm507.29-18.79-2-.46c.9-3.85,1.71-7.79,2.43-11.7l2,.37C587.18,364.41,586.35,368.38,585.45,372.27Zm-513.4-4.5c-.83-3.9-1.58-7.88-2.24-11.83l2-.33c.65,3.92,1.4,7.87,2.23,11.74Zm517.76-19.18-2-.27c.54-3.92,1-7.91,1.36-11.88l2,.18c-.36,4-.82,8-1.36,12ZM68.11,344c-.47-4-.86-8-1.15-12l2-.15c.29,4,.67,8,1.14,11.9ZM592,324.61l-2-.09c.18-4,.27-8,.27-11.94h2c0,4-.09,8-.27,12ZM66.36,320c-.07-2.45-.11-4.95-.11-7.43,0-1.54,0-3.08,0-4.61l2,0c0,1.52,0,3.05,0,4.58,0,2.46,0,4.94.1,7.38Zm2.41-23.95-2-.12c.25-4,.59-8,1-12l2,.22c-.42,3.93-.77,7.94-1,11.9ZM589,283.86c-.4-3.94-1-5.86-1.53-9.79l2-.29c.58,4,1.09,7,1.49,11ZM71.34,272.31l-2-.31c.62-3.95,1.33-7.94,2.12-11.85l2,.4c-.79,3.88-1.49,7.83-2.1,11.76Zm514.07-10c-.76-3.9-1.62-7.82-2.56-11.67l1.95-.47c.94,3.87,1.81,7.83,2.58,11.76ZM76.08,248.89l-1.94-.48c1-3.88,2-7.78,3.19-11.61l1.92.57C78.11,241.17,77,245.05,76.08,248.89Zm503.68-9.81c-1.11-3.81-2.33-7.64-3.62-11.39L578,227c1.3,3.78,2.53,7.64,3.65,11.48ZM83,226l-1.89-.66c1.33-3.78,2.77-7.58,4.27-11.29l1.85.75c-1.49,3.68-2.91,7.45-4.23,11.2Zm489-9.49c-1.45-3.69-3-7.38-4.64-11l1.82-.83c1.64,3.64,3.21,7.36,4.68,11.07Zm-480-12.71L90.12,203c1.67-3.64,3.45-7.29,5.28-10.84l1.78.91C95.36,196.55,93.6,200.17,91.94,203.78Zm470.27-9c-1.79-3.53-3.69-7.07-5.64-10.52l1.74-1c2,3.47,3.88,7,5.68,10.59Zm-459.3-12.23-1.73-1c2-3.46,4.1-6.93,6.26-10.31l1.68,1.08C107,175.64,104.89,179.08,102.91,182.52ZM550.46,174c-2.12-3.36-4.33-6.71-6.58-10l1.64-1.14c2.27,3.27,4.5,6.65,6.63,10ZM115.79,162.36l-1.64-1.15c2.31-3.27,4.72-6.53,7.17-9.69l1.58,1.22C120.47,155.88,118.08,159.11,115.79,162.36Zm421.06-8c-2.41-3.16-4.92-6.3-7.46-9.33l1.53-1.29c2.56,3.06,5.09,6.22,7.52,9.4Zm-406.41-10.9-1.52-1.3c2.59-3,5.28-6.06,8-9l1.47,1.36C135.69,137.45,133,140.45,130.44,143.47Zm391.07-7.41c-2.69-2.92-5.47-5.82-8.28-8.61l1.41-1.42c2.83,2.81,5.64,5.73,8.34,8.68ZM146.75,126l-1.4-1.43c2.86-2.8,5.82-5.57,8.79-8.23l1.33,1.5c-2.95,2.63-5.89,5.38-8.72,8.16Zm357.81-6.78c-2.94-2.67-6-5.31-9-7.83l1.27-1.54c3.08,2.54,6.14,5.19,9.11,7.88Zm-340-9.14-1.26-1.55c3.09-2.52,6.29-5,9.5-7.38l1.2,1.61c-3.19,2.36-6.37,4.82-9.44,7.32Zm19.19-14.21-1.12-1.66c3.31-2.23,6.72-4.41,10.13-6.49l1,1.71C190.41,91.49,187,93.66,183.75,95.87Zm20.38-12.4-1-1.76c3.51-1.92,7.1-3.78,10.68-5.53l.88,1.8c-3.56,1.74-7.12,3.58-10.6,5.49ZM445.5,78.83c-3.55-1.77-7.2-3.48-10.83-5.09l.81-1.83c3.66,1.62,7.33,3.34,10.92,5.13ZM225.56,73l-.8-1.84c3.66-1.58,7.41-3.11,11.13-4.52l.71,1.87c-3.7,1.4-7.41,2.91-11,4.49Zm198.05-3.84c-3.71-1.43-7.5-2.8-11.27-4.07l.64-1.9c3.8,1.28,7.62,2.66,11.35,4.11ZM247.86,64.52l-.62-1.9c3.8-1.25,7.68-2.42,11.53-3.49l.53,1.93C255.48,62.12,251.64,63.28,247.86,64.52Zm153.07-3c-3.82-1.09-7.71-2.1-11.57-3l.46-1.94c3.89.91,7.81,1.93,11.66,3Zm-130-3.41-.45-2c3.9-.89,7.87-1.7,11.8-2.41l.35,2C278.69,56.44,274.75,57.24,270.89,58.13Zm106.78-2.07c-3.89-.73-7.86-1.38-11.79-1.93l.28-2c4,.55,8,1.21,11.88,1.94ZM294.4,53.88l-.27-2c4-.53,8-1,12-1.32l.17,2C302.32,52.92,298.33,53.36,294.4,53.88ZM354,52.74c-3.94-.37-7.95-.66-11.92-.85l.09-2c4,.19,8,.48,12,.85Zm-35.82-.93-.08-2c3.67-.15,7.42-.23,11.13-.23h.91v2h-.9C325.57,51.58,321.85,51.66,318.2,51.81Z"/><path class="cls-2" d="M778.46,233.36l-5,34s-22,44-8,89l18-11s14-54,14-58,6-51,6-51Z"/><path class="cls-3" d="M788.46,342.36l-24,16,12,59s3,80,2,83-19,125-19,125,21,10,40,4c0,0,19-90,19-116l22-91,34,104s2,70,6,93,4,26,4,26,32,9,40,0c0,0-4-118-7-130l-7-143Z"/><path class="cls-3" d="M767.46,625.36s-2-3-8,5-25,23-25,23-52,37-13,39,46-18,46-18,33-6,34-13-4-35-4-35Z"/><path class="cls-3" d="M886.46,643.36s-7,24-5,34-4,47,24,44,19-35,19-35l-9-41Z"/><circle class="cls-2" cx="846.96" cy="86.86" r="33"/><path class="cls-2" d="M827.46,104.36s10,35,2,48,54,2,58-10c0,0-20-22-17-43Z"/><path class="cls-4" d="M843.46,151.36s27.38,1.85,40.69-13.07l49.31,21.07-21,116s42,98,4,107-148,0-143-33,25-73,25-73,5-44-6-64-4-43-4-43l44-29.16S834.46,151.36,843.46,151.36Z"/><path class="cls-4" d="M800.46,170.36h-12s-14,3-11,41l-7,27s35,9,40,4S800.46,170.36,800.46,170.36Z"/><path class="cls-2" d="M945.46,230.36l-4,35s5,46-12,82l-6,18s-6,52-22,52,0-59,0-59l8-59s6-23,2-33-5-31-5-31Z"/><path class="cls-3" d="M838.85,65.27a131.08,131.08,0,0,1,14.79-1.47c3.59-.15,7.33-.13,10.57,1.42,4.89,2.33,7.63,7.59,9.42,12.7S876.7,88.49,880,92.76c5.54-5.77,6.65-14.37,7.47-22.32.58-5.6,1.09-11.57-1.49-16.57-1.6-3.08-4.23-5.48-6.89-7.69-12.72-10.59-28.88-18.92-45.26-16.54l-.38,2.52a45.77,45.77,0,0,0-8.35.53L825.7,39l-8.7.55-.33,6.54-8.8.31A10.16,10.16,0,0,0,810.94,53,12.36,12.36,0,0,1,806.42,55c1.47,5.67,2.89,11.37,4.41,17,1.12,4.18.92,7.86,5.39,5.83,3.41-1.55,5.72-6.49,9.16-8.52C829.44,67,834.25,66,838.85,65.27Z"/><path class="cls-4" d="M919.46,160.36h14s23,77,19,78-51,4-51,4Z"/><circle class="cls-3" cx="323.96" cy="307.86" r="81"/><polygon class="cls-5" points="374.96 299.86 331.96 299.86 331.96 256.86 315.96 256.86 315.96 299.86 272.96 299.86 272.96 315.86 315.96 315.86 315.96 358.86 331.96 358.86 331.96 315.86 374.96 315.86 374.96 299.86"/><rect class="cls-6" x="71.61" y="444.69" width="110.15" height="128.33"/><path class="cls-1" d="M224.54,574.09h-154v-154h154ZM72.68,572H222.4V422.23H72.68Z"/><rect class="cls-1" x="102.62" y="465.01" width="94.11" height="2.14"/><rect class="cls-1" x="102.62" y="488.54" width="94.11" height="2.14"/><rect class="cls-1" x="102.62" y="512.06" width="94.11" height="2.14"/><rect class="cls-6" x="224.79" y="22.83" width="222" height="110.17"/><path class="cls-1" d="M491.79,134h-268V0h268Zm-266-2h264V2h-264Z"/><rect class="cls-1" x="263.82" y="55.92" width="143.94" height="2"/><rect class="cls-1" x="263.82" y="76.92" width="143.94" height="2"/><rect class="cls-1" x="263.82" y="97.92" width="143.94" height="2"/><rect class="cls-6" x="529.96" y="300.86" width="95" height="101"/><path class="cls-1" d="M649,402.86H529v-120H649Zm-118-2H647v-116H531Z"/><rect class="cls-1" x="544.46" y="337.36" width="66" height="2"/><rect class="cls-1" x="544.46" y="350.36" width="66" height="2"/><rect class="cls-1" x="544.46" y="363.36" width="66" height="2"/><rect class="cls-1" x="129.02" y="132" width="457.55" height="2"/><rect class="cls-1" x="463.46" y="400.86" width="251" height="2"/><rect class="cls-1" y="572.86" width="295.08" height="2"/></svg>