<svg id="f9bc2a0f-651a-4336-bfd5-9ca8f57cbc4d" xmlns="http://www.w3.org/2000/svg" viewBox="0 0 567 666.55"><defs><style>.cls-1{fill:#f5f5f5;}.cls-2,.cls-7,.cls-8{opacity:0.1;}.cls-11,.cls-12,.cls-13,.cls-2,.cls-6,.cls-7,.cls-8{isolation:isolate;}.cls-3{fill:#3ad29f;}.cls-4{fill:none;stroke:#fff;stroke-linecap:round;stroke-miterlimit:10;stroke-width:7px;}.cls-5{opacity:0.4;}.cls-6{opacity:0.3;}.cls-14,.cls-7{fill:#6c63ff;}.cls-8{fill:#fff;}.cls-11,.cls-12,.cls-13,.cls-9{opacity:0.5;}.cls-10,.cls-13{fill:#47e6b1;}.cls-11{fill:#4d8af0;}.cls-12{fill:#f55f44;}.cls-15{fill:#ffb9b9;}.cls-16{fill:#d0cde1;}.cls-17{fill:#2f2e41;}</style></defs><polygon class="cls-1" points="528.76 115.47 474.5 99.07 471.16 173.27 528.26 190.48 528.76 115.47"/><polygon class="cls-1" points="146.81 0 146.81 75.5 471.16 173.27 474.5 99.07 146.81 0"/><polygon class="cls-2" points="528.76 115.47 474.5 99.07 471.16 173.27 528.26 190.48 528.76 115.47"/><polygon class="cls-3" points="528.76 257.59 474.5 241.19 471.16 315.39 528.26 332.6 528.76 257.59"/><polygon class="cls-3" points="146.81 142.12 146.81 217.62 471.16 315.39 474.5 241.19 146.81 142.12"/><polygon class="cls-2" points="528.76 257.59 474.5 241.19 471.16 315.39 528.26 332.6 528.76 257.59"/><polyline class="cls-4" points="488.29 283.75 497.17 297.07 514.94 274.86"/><g class="cls-5"><line class="cls-4" x1="488.78" y1="128.3" x2="506.55" y2="159.39"/><line class="cls-4" x1="510.99" y1="132.74" x2="488.78" y2="154.95"/></g><polygon class="cls-1" points="528.76 390.83 474.5 374.43 471.16 448.63 528.26 465.84 528.76 390.83"/><polygon class="cls-1" points="146.81 275.36 146.81 350.86 471.16 448.63 474.5 374.43 146.81 275.36"/><polygon class="cls-2" points="528.76 390.83 474.5 374.43 471.16 448.63 528.26 465.84 528.76 390.83"/><g class="cls-5"><line class="cls-4" x1="488.78" y1="403.66" x2="506.55" y2="434.75"/><line class="cls-4" x1="510.99" y1="408.1" x2="488.78" y2="430.31"/></g><ellipse class="cls-6" cx="371.09" cy="243.78" rx="11.1" ry="22.21"/><ellipse class="cls-7" cx="371.09" cy="243.78" rx="93.27" ry="186.53"/><ellipse class="cls-8" cx="371.09" cy="243.78" rx="51.07" ry="102.15"/><g class="cls-9"><rect class="cls-10" x="3.45" y="110.29" width="1.48" height="8.39"/><rect class="cls-10" y="113.75" width="8.39" height="1.48"/></g><g class="cls-9"><rect class="cls-10" x="528.45" y="519.29" width="1.48" height="8.39"/><rect class="cls-10" x="525" y="522.75" width="8.39" height="1.48"/></g><g class="cls-9"><rect class="cls-10" x="491.99" y="341.24" width="1.48" height="8.39"/><rect class="cls-10" x="488.54" y="344.69" width="8.39" height="1.48"/></g><g class="cls-9"><rect class="cls-10" x="428.83" y="511.98" width="1.48" height="8.39"/><rect class="cls-10" x="425.37" y="515.43" width="8.39" height="1.48"/></g><g class="cls-9"><rect class="cls-10" x="384.42" y="619.06" width="1.48" height="8.39"/><rect class="cls-10" x="380.96" y="622.52" width="8.39" height="1.48"/></g><g class="cls-9"><rect class="cls-10" x="66.62" y="240.07" width="1.48" height="8.39"/><rect class="cls-10" x="63.16" y="243.53" width="8.39" height="1.48"/></g><path class="cls-11" d="M89.66,109.45a1.81,1.81,0,0,1-1-2.19,1.18,1.18,0,0,0,0-.2h0a.91.91,0,0,0-1.63-.6h0a1.08,1.08,0,0,0-.11.18,1.81,1.81,0,0,1-2.19,1,.65.65,0,0,0-.2,0h0a.91.91,0,0,0-.6,1.63h0a.64.64,0,0,0,.18.1,1.82,1.82,0,0,1,1,2.19.78.78,0,0,0,0,.21h0a.91.91,0,0,0,1.63.6h0a.81.81,0,0,0,.1-.18,1.82,1.82,0,0,1,2.19-1l.21,0h0a.91.91,0,0,0,.6-1.63h0Z" transform="translate(0)"/><path class="cls-11" d="M422.85,35.26a1.82,1.82,0,0,1-1-2.19.71.71,0,0,0,0-.2h0a.91.91,0,0,0-.85-1,.88.88,0,0,0-.78.36h0a.59.59,0,0,0-.1.17,1.82,1.82,0,0,1-2.19,1,.52.52,0,0,0-.21,0h0a.91.91,0,0,0-.6,1.63h0l.18.1a1.82,1.82,0,0,1,1,2.19,1.42,1.42,0,0,0,0,.2h0a.92.92,0,0,0,.85,1,.93.93,0,0,0,.78-.36h0A.87.87,0,0,0,420,38a1.8,1.8,0,0,1,2.19-1l.2,0h0a.91.91,0,0,0,1-.86.92.92,0,0,0-.36-.78h0A.77.77,0,0,0,422.85,35.26Z" transform="translate(0)"/><path class="cls-11" d="M13.27,299.27a1.82,1.82,0,0,1-1-2.19,1.42,1.42,0,0,0,0-.2h0a.92.92,0,0,0-.85-1,.93.93,0,0,0-.78.36h0a.87.87,0,0,0-.11.18,1.8,1.8,0,0,1-2.19,1l-.2,0h0a.91.91,0,0,0-1,.86.92.92,0,0,0,.36.78h0a.77.77,0,0,0,.18.1,1.82,1.82,0,0,1,1,2.19.65.65,0,0,0,0,.2h0a.91.91,0,0,0,.85,1,.88.88,0,0,0,.78-.36h0a.52.52,0,0,0,.1-.18,1.83,1.83,0,0,1,2.19-1,.52.52,0,0,0,.21,0h0a.91.91,0,0,0,.6-1.63h0Z" transform="translate(0)"/><path class="cls-11" d="M26.59,485.8a1.82,1.82,0,0,1-1-2.19.65.65,0,0,0,0-.2h0a.91.91,0,0,0-.85-1,.89.89,0,0,0-.78.36h0a.52.52,0,0,0-.1.18,1.83,1.83,0,0,1-2.19,1,.51.51,0,0,0-.2,0h0a.91.91,0,0,0-.61,1.63h0l.18.1a1.81,1.81,0,0,1,1,2.19,1.42,1.42,0,0,0,0,.2h0a.92.92,0,0,0,.85,1,1,1,0,0,0,.79-.36h0a1.62,1.62,0,0,0,.1-.18,1.8,1.8,0,0,1,2.19-1l.2,0h0a.91.91,0,0,0,.6-1.64h0A.77.77,0,0,0,26.59,485.8Z" transform="translate(0)"/><circle class="cls-12" cx="248.71" cy="134.47" r="2.96"/><circle class="cls-11" cx="328.65" cy="520.86" r="2.96"/><circle class="cls-11" cx="510.74" cy="214.41" r="2.96" transform="translate(217.29 684.22) rotate(-80.78)"/><circle class="cls-13" cx="564.04" cy="347.65" r="2.96"/><circle class="cls-12" cx="365.66" cy="11.6" r="2.96"/><rect class="cls-14" x="212.29" y="141.63" width="28.6" height="22.24" transform="translate(65.17 373.25) rotate(-87.78)"/><path class="cls-15" d="M316.29,238.11s30.78-14.7,30.29-2-31,21.05-31,21.05Z" transform="translate(0)"/><path d="M299.4,345.57s14.52,35.54,19.89,61.19,13.54,60.94,3,86-40.4,98.6-40.7,106.54,2.56,16-3.8,15.75-40.9-11.12-42.3-15.95,11.79-17,11.79-17L279.88,480l-34-66.51-24.51,99.22L216.57,636.5s-23.56-7.28-27-1c0,0-10.56-14.72-11.9-21.13s5-128.59,5-128.59S161,346.57,178.5,347.24,264.37,306.06,299.4,345.57Z" transform="translate(0)"/><path d="M278.07,608.67s16.11,35.61,17.64,37.26,12,18,4.08,17.64-26.68-9-40.47-22.23-32-36.22-30.34-37.75,13-5.86,13-5.86Z" transform="translate(0)"/><path d="M213.71,628.44s1,15.93,3.9,22.41,2.56,16-5.38,15.69-28.45-4.28-28.45-4.28-1.22-9.59.43-11.12,8.67-18.74,5.68-23.63S213.71,628.44,213.71,628.44Z" transform="translate(0)"/><path class="cls-15" d="M202,111.25S185,137.63,178.45,143.73s12,19.54,12,19.54l33.21,4.47s-.41-30.22,1.3-33.34S202,111.25,202,111.25Z" transform="translate(0)"/><path class="cls-16" d="M230.83,145.76S224,158.22,217.64,158s-39.19-14.24-40.6-19.06-10.88,34.55-10.88,34.55L246.53,314.9l19.61-13.55-9.5-83-7.8-44.82Z" transform="translate(0)"/><path class="cls-17" d="M174.08,272.35c3.2,6.7,5.21,13.7,4.93,20.86,0,.31,0,.63,0,1-.76,14.69-6.18,31.68-8.12,44-1.41,8.87-1,15.34,4.18,16.86,12.58,3.67-1.83,6.29,46.83,22.48s57.15,2.22,57.27-1-6.89-27.29-5.24-28.82,23.07,20,29.55,17.05.74-19.05.74-19.05-14.59-34-14.28-41.89-22.09-45.38-22.09-45.38l-15.23-99.17s-5.86-12.94-13.74-14.84-14.41,2.62-14.41,2.62l13.18,29.13,13.91,51.42-2.33,19s-16.17-34-26.79-47.15-33.26-44.22-33.26-44.22-5.29-17.83-1.3-23.16-16.64-6.15-25.44,15.77c-4.67,11.61-12.24,28.94-17,45.07-4.23,14.28-6.23,27.64-2,35.28C149.77,239.89,165.87,255.22,174.08,272.35Z" transform="translate(0)"/><path class="cls-2" d="M143.37,228.23c6.4,11.66,22.5,27,30.71,44.12,2.14-7.73,4.76-15.72,4.76-15.72s10-53.67-19.64-67.54A19.84,19.84,0,0,0,145.41,193C141.18,207.23,139.18,220.59,143.37,228.23Z" transform="translate(0)"/><path class="cls-17" d="M261.16,224.84l25.15,7.34,34.93,1.35,3.59,30.35L267.43,268S253.1,227.71,261.16,224.84Z" transform="translate(0)"/><path class="cls-15" d="M220.14,326.88s33.65,5.59,26,15.71-37.49-.52-37.49-.52Z" transform="translate(0)"/><path class="cls-2" d="M179,294.16c-.76,14.69-6.18,31.68-8.12,44,10.72,10.15,20.92,19.1,24.76,19.25,7.94.3,20.7-.79,25.4,1s7.46-28.33,7.46-28.33-2.81-9.65-15.33-14.9C204.69,311.64,188.49,302,179,294.16Z" transform="translate(0)"/><path class="cls-17" d="M159.57,179.57s-26.87-4.22-25.42,40.35-2.83,73,8,81.4S188,347.61,196,347.92s20.7-.79,25.4,1,7.46-28.33,7.46-28.33-2.81-9.65-15.33-14.91-42-23.88-41.75-30.23,7.46-28.33,7.46-28.33S189.24,193.44,159.57,179.57Z" transform="translate(0)"/><circle class="cls-15" cx="225.65" cy="115.35" r="34.95" transform="translate(75.65 319.62) rotate(-80.78)"/><path class="cls-17" d="M249.19,65.26a6.76,6.76,0,0,0,2.94,1.47,2.1,2.1,0,0,0,2.43-1.68c.8,1.66,1.7,3.42,3.33,4.27s4.16.14,4.4-1.68a7.65,7.65,0,0,0,1.77,3.74c1,1,2.85,1.21,3.73.12-.71,3.91-.27,7.93-.5,11.9S266,91.57,263,94.17C258.65,98,252.08,97,246.33,96.32a5.18,5.18,0,0,0-2.62.14c-2.15.92-2.05,3.91-2.08,6.25a17.38,17.38,0,0,1-15.21,16.5,8.71,8.71,0,0,1-6.48-1.58c-1.63-1.38-2.46-3.64-4.33-4.68-3-1.69-6.73.78-9,3.46s-4.41,6-7.86,6.46c-4.56.64-8-4-9.73-8.28a48.2,48.2,0,0,1,1-37.47C199.53,56.38,232,53.1,249.19,65.26Z" transform="translate(0)"/></svg>